name Walk3.mot
datacolumns 19
datarows 17
range 2.34000000 2.35600000
endheader

                time	   L_ground_force_vx	   L_ground_force_vy	   L_ground_force_vz	   L_ground_force_px	   L_ground_force_py	   L_ground_force_pz	   R_ground_force_vx	   R_ground_force_vy	   R_ground_force_vz	   R_ground_force_px	   R_ground_force_py	   R_ground_force_pz	   L_ground_torque_x	   L_ground_torque_y	   L_ground_torque_z	   R_ground_torque_x	   R_ground_torque_y	   R_ground_torque_z	
          2.34000000	          0.00000000	          0.00000000	          0.00000000	          0.00000000	          0.00000000	          0.00000000	         11.36305039	         42.73385920	         -0.09049641	          0.28025711	          0.00000000	          0.05703525	          0.00000000	          0.00000000	          0.00000000	          0.00000000	          0.10964263	          0.00000000	
          2.34100000	          0.00000000	          0.00000000	          0.00000000	          0.00000000	          0.00000000	          0.00000000	         10.55779005	         39.95781202	         -0.45850376	          0.28329487	          0.00000000	          0.05940600	          0.00000000	          0.00000000	          0.00000000	          0.00000000	          0.08846353	          0.00000000	
          2.34200000	          0.00000000	          0.00000000	          0.00000000	          0.00000000	          0.00000000	          0.00000000	          9.78109969	         37.35687089	         -0.79039999	          0.28612420	          0.00000000	          0.06137554	          0.00000000	          0.00000000	          0.00000000	          0.00000000	          0.07440916	          0.00000000	
          2.34300000	          0.00000000	          0.00000000	          0.00000000	          0.00000000	          0.00000000	          0.00000000	          9.02577940	         34.85914711	         -1.08924432	          0.28796739	          0.00000000	          0.06250366	          0.00000000	          0.00000000	          0.00000000	          0.00000000	          0.06631561	          0.00000000	
          2.34400000	          0.00000000	          0.00000000	          0.00000000	          0.00000000	          0.00000000	          0.00000000	          8.27844257	         32.37521629	         -1.34968511	          0.28847380	          0.00000000	          0.06263383	          0.00000000	          0.00000000	          0.00000000	          0.00000000	          0.06218762	          0.00000000	
          2.34500000	          0.00000000	          0.00000000	          0.00000000	          0.00000000	          0.00000000	          0.00000000	          7.51176561	         29.73757373	         -1.54640364	          0.28763390	          0.00000000	          0.06178545	          0.00000000	          0.00000000	          0.00000000	          0.00000000	          0.06029013	          0.00000000	
          2.34600000	          0.00000000	          0.00000000	          0.00000000	          0.00000000	          0.00000000	          0.00000000	          6.67290229	         26.70641674	         -1.65211601	          0.28598267	          0.00000000	          0.06011157	          0.00000000	          0.00000000	          0.00000000	          0.00000000	          0.05782346	          0.00000000	
          2.34700000	          0.00000000	          0.00000000	          0.00000000	          0.00000000	          0.00000000	          0.00000000	          5.69355621	         23.04202756	         -1.64276295	          0.28465393	          0.00000000	          0.05814098	          0.00000000	          0.00000000	          0.00000000	          0.00000000	          0.05058113	          0.00000000	
          2.34800000	          0.00000000	          0.00000000	          0.00000000	          0.00000000	          0.00000000	          0.00000000	          4.53014362	         18.59077666	         -1.48967148	          0.28464267	          0.00000000	          0.05667015	          0.00000000	          0.00000000	          0.00000000	          0.00000000	          0.03671050	          0.00000000	
          2.34900000	          0.00000000	          0.00000000	          0.00000000	          0.00000000	          0.00000000	          0.00000000	          3.22701010	         13.47782840	         -1.18841354	          0.28606271	          0.00000000	          0.05609159	          0.00000000	          0.00000000	          0.00000000	          0.00000000	          0.02028685	          0.00000000	
          2.35000000	          0.00000000	          0.00000000	          0.00000000	          0.00000000	          0.00000000	          0.00000000	          1.95271328	          8.33291167	         -0.80124418	          0.28849897	          0.00000000	          0.05615639	          0.00000000	          0.00000000	          0.00000000	          0.00000000	          0.00714757	          0.00000000	
          2.35100000	          0.00000000	          0.00000000	          0.00000000	          0.00000000	          0.00000000	          0.00000000	          0.00000000	          0.00000000	          0.00000000	          0.00000000	          0.00000000	          0.00000000	          0.00000000	          0.00000000	          0.00000000	          0.00000000	          0.00000000	          0.00000000	
          2.35200000	          0.00000000	          0.00000000	          0.00000000	          0.00000000	          0.00000000	          0.00000000	          0.00000000	          0.00000000	          0.00000000	          0.00000000	          0.00000000	          0.00000000	          0.00000000	          0.00000000	          0.00000000	          0.00000000	          0.00000000	          0.00000000	
          2.35300000	          0.00000000	          0.00000000	          0.00000000	          0.00000000	          0.00000000	          0.00000000	          0.00000000	          0.00000000	          0.00000000	          0.00000000	          0.00000000	          0.00000000	          0.00000000	          0.00000000	          0.00000000	          0.00000000	          0.00000000	          0.00000000	
          2.35400000	          0.00000000	          0.00000000	          0.00000000	          0.00000000	          0.00000000	          0.00000000	          0.00000000	          0.00000000	          0.00000000	          0.00000000	          0.00000000	          0.00000000	          0.00000000	          0.00000000	          0.00000000	          0.00000000	          0.00000000	          0.00000000	
          2.35500000	          0.00000000	          0.00000000	          0.00000000	          0.00000000	          0.00000000	          0.00000000	          0.00000000	          0.00000000	          0.00000000	          0.00000000	          0.00000000	          0.00000000	          0.00000000	          0.00000000	          0.00000000	          0.00000000	          0.00000000	          0.00000000	
          2.35600000	          0.00000000	          0.00000000	          0.00000000	          0.00000000	          0.00000000	          0.00000000	          0.00000000	          0.00000000	          0.00000000	          0.00000000	          0.00000000	          0.00000000	          0.00000000	          0.00000000	          0.00000000	          0.00000000	          0.00000000	          0.00000000	
